<?xml version="1.0" encoding="UTF-8"?>
<svg width="275px" height="56px" viewBox="0 0 275 56" version="1.1" xmlns="http://www.w3.org/2000/svg" xmlns:xlink="http://www.w3.org/1999/xlink">
    <title>Group</title>
    <g id="Клубок-КЗ" stroke="none" stroke-width="1" fill="none" fill-rule="evenodd">
        <g id="Artboard" transform="translate(-649, -166)" fill="#FFFFFF" fill-rule="nonzero">
            <g id="Group" transform="translate(649, 166)">
                <path d="M247,0 C262.463973,-2.84068575e-15 275,12.536027 275,28 C275,43.463973 262.463973,56 247,56 L184,56 C168.536027,56 156,43.463973 156,28 C156,12.536027 168.536027,2.84068575e-15 184,0 L247,0 Z M191.369199,9.33265485 C188.524918,8.68702537 185.569717,8.68702537 182.725436,9.33265485 C180.661189,9.7995311 178.690804,10.6057518 176.896386,11.7177226 C174.424889,13.2506622 172.335392,15.3159323 170.783869,17.7593678 C166.908839,23.9024902 166.908839,31.6918822 170.783869,37.8350046 L171.107261,38.328603 L171.195096,38.458913 C171.231029,38.5102473 171.266961,38.5576327 171.298901,38.6050182 C171.317502,38.6277557 171.334828,38.651484 171.350804,38.6760964 C171.366774,38.6997891 171.382744,38.719533 171.398714,38.739277 C171.454609,38.8182527 171.510504,38.8972285 171.570391,38.9762042 C171.670204,39.1144118 171.774009,39.2486706 171.877814,39.3829294 C171.993596,39.5369321 172.113371,39.6830372 172.225161,39.8133472 L172.384861,40.0068378 C172.404824,40.0265818 172.424786,40.0502745 172.444749,40.0739672 C172.462556,40.098138 172.482605,40.1206119 172.504636,40.1410966 C172.604449,40.2595602 172.708254,40.3780239 172.816051,40.4925387 C172.819038,40.4984812 172.823097,40.5038341 172.828029,40.5083339 C172.848227,40.5366082 172.870941,40.5630388 172.895901,40.5873096 C172.963774,40.6662854 173.047616,40.7492099 173.115489,40.8163393 L173.123474,40.8242369 L173.554664,41.2546547 C173.594589,41.2980914 173.638506,41.3415281 173.682424,41.3849647 C173.686671,41.385332 173.690037,41.3886621 173.690409,41.3928623 C173.694656,41.3932296 173.698022,41.3965597 173.698394,41.4007599 L173.878056,41.566609 L173.929959,41.6139944 L173.985854,41.6692774 C174.037756,41.7166629 174.089659,41.7640483 174.137569,41.8035362 L174.165516,41.8311777 C174.17292,41.8354423 174.179647,41.8407647 174.185479,41.8469729 C174.20241,41.8589511 174.218423,41.8721496 174.233389,41.8864608 C174.241677,41.896638 174.251046,41.905905 174.261336,41.9141023 C174.272505,41.9195692 174.282113,41.9277143 174.289284,41.937795 C174.309777,41.9528102 174.328523,41.9700268 174.345179,41.9891292 C174.374049,42.0212341 174.406155,42.0503426 174.444991,42.0760026 C174.496894,42.1194392 174.544804,42.1628759 174.596706,42.2023638 L174.700511,42.2931859 L174.832264,42.3998032 C174.972001,42.5182668 175.123716,42.6406792 175.291401,42.7630916 C175.439124,42.8776065 175.582854,42.9842237 175.730576,43.090841 C175.806434,43.146124 175.878299,43.2014071 175.954156,43.2527413 C176.061954,43.3277683 176.165759,43.3988465 176.273556,43.4699246 C176.477174,43.6081322 176.684784,43.742391 176.896386,43.8766498 C176.912323,43.8881747 176.929788,43.8974758 176.948289,43.9042913 C178.726799,45.0048045 180.679738,45.801722 182.725436,46.2617176 C185.568142,46.9093243 188.5225,46.9093243 191.365206,46.2617176 C191.369595,46.26224 191.373989,46.2607912 191.377184,46.2577688 C193.437678,45.7928874 195.404236,44.9879106 197.194256,43.8766498 C199.66457,42.3435751 201.752735,40.2782721 203.302781,37.8350046 C204.426343,36.0645827 205.240231,34.119556 205.714251,32.0737233 C206.043917,30.6729361 206.210026,29.2393691 206.209325,27.801135 C206.208232,27.0781237 206.166914,26.3557194 206.085553,25.6371993 C206.045628,25.2778596 205.993726,24.9224687 205.929846,24.5710266 C205.901898,24.39728 205.865966,24.2195845 205.830033,24.0458379 C205.794101,23.8720912 205.758168,23.6943958 205.718243,23.5245979 C205.247313,21.4950423 204.437725,19.5572903 203.322743,17.7909581 C203.322743,17.7830606 203.322743,17.7791118 203.314758,17.775163 C203.314758,17.7672654 203.310766,17.7633166 203.306773,17.755419 L203.226923,17.6409042 C203.220431,17.6269101 203.212398,17.6136674 203.202968,17.6014163 C203.188017,17.5736517 203.17065,17.5472267 203.151066,17.5224406 C203.139088,17.5026966 203.127111,17.4869015 203.119126,17.4711063 C203.113691,17.4622769 203.106964,17.4542927 203.099163,17.4474136 C203.092232,17.4315625 203.082798,17.4169009 203.071216,17.4039769 C203.011328,17.3131548 202.947448,17.2262815 202.891553,17.1394082 C202.876875,17.1206018 202.863535,17.1008103 202.851628,17.0801763 L202.755808,16.9340712 C202.739717,16.9085272 202.720984,16.8847065 202.699913,16.862993 C202.671549,16.8218514 202.640892,16.7823024 202.608086,16.7445294 C202.536221,16.6379121 202.452378,16.5312949 202.376521,16.4246776 C202.344581,16.3851897 202.312641,16.3457018 202.280701,16.3022652 C202.248533,16.258245 202.213876,16.2160573 202.176896,16.175904 C202.160926,16.1522112 202.140963,16.1285185 202.124993,16.1048258 C202.069098,16.0297988 202.005218,15.9547718 201.945331,15.8797449 C201.885443,15.8047179 201.829548,15.7415373 201.769661,15.6744079 C201.490186,15.3466585 201.206718,15.0268067 200.911273,14.7227501 C200.723626,14.5332083 200.531986,14.3318201 200.332361,14.1422783 C200.300421,14.1067392 200.264488,14.0751489 200.228556,14.0396098 C200.204601,14.0198659 200.180646,13.9961731 200.156691,13.9764292 C200.100796,13.925095 200.044901,13.8737607 199.985013,13.8224265 C199.981021,13.8184777 199.977028,13.8145289 199.973036,13.8145289 L199.961058,13.7987338 C199.897178,13.7395019 199.833298,13.6802701 199.769418,13.6249871 C199.705538,13.5697041 199.637666,13.514421 199.569793,13.459138 C199.521883,13.4157013 199.473973,13.3762135 199.422071,13.3327768 C199.415116,13.3250614 199.407043,13.3184079 199.398116,13.3130329 C199.38182,13.2974191 199.36448,13.2829075 199.346213,13.2695962 C199.250393,13.1906205 199.150581,13.1076959 199.050768,13.0287202 L198.990881,12.9813347 L198.966926,12.9615908 C198.930993,12.9300005 198.895061,12.9023589 198.863121,12.8786662 C198.643533,12.7088683 198.411968,12.5351217 198.184396,12.3771702 L198.096561,12.3139896 C198.016711,12.2547578 197.940853,12.1994747 197.853018,12.1441917 L197.765183,12.0849599 C197.749213,12.0770623 197.733243,12.065216 197.713281,12.0533696 C197.698316,12.0390584 197.682302,12.0258599 197.665371,12.0138817 C197.585521,11.9625475 197.505671,11.9112132 197.425821,11.8638278 C197.345971,11.8164423 197.274106,11.7730057 197.202241,11.7256202 C197.185809,11.7148924 197.168439,11.7056417 197.150338,11.6979787 C195.370779,10.5949672 193.41655,9.79540421 191.369199,9.33265485 Z M189.392911,43.6397066 C189.856614,43.6371963 190.267133,43.9356959 190.403014,44.374197 L190.770324,45.5825261 C188.312667,46.0820471 185.777975,46.0820471 183.320319,45.5825261 L183.691621,44.3781458 C183.825875,43.9413429 184.232151,43.6419732 184.693739,43.6397066 Z M224.003923,9.38989899 L213.055923,9.38989899 L213.055923,45.8181818 L224.003923,45.8181818 L224.003923,31.7152323 L229.425288,31.7152323 L243.426096,45.8181818 L257.269,45.8181818 L237.899462,26.8754747 L255.637327,9.38989899 L242.531308,9.38989899 L229.21475,23.4408081 L224.003923,23.4408081 L224.003923,9.38989899 Z M200.032923,37.3532525 C200.358565,37.0300774 200.859908,36.956261 201.266606,37.1716082 L202.396483,37.771824 C201.014427,39.8416296 199.223094,41.6133501 197.130376,42.980275 L196.523516,41.862768 C196.308741,41.4600201 196.383098,40.9660019 196.707171,40.6425926 Z M172.824036,37.1716082 C173.229904,36.9591715 173.728328,37.0327964 174.053726,37.3532525 L177.383471,40.6425926 C177.477025,40.7317038 177.550494,40.8393544 177.599066,40.9584957 C177.728779,41.2488936 177.717012,41.5820308 177.567126,41.862768 L177.155899,42.6248841 L176.964259,42.9763262 C176.812544,42.8776065 176.664821,42.7788868 176.517099,42.6762183 L176.453219,42.6367304 C176.205684,42.459035 175.962141,42.2813395 175.722591,42.0957465 C175.467071,41.8943583 175.215544,41.6890214 174.968009,41.4836844 C174.732451,41.2743987 174.496894,41.0651129 174.269321,40.8479296 C174.258364,40.8351154 174.246345,40.8232278 174.233389,40.8123905 L173.877021,40.4567071 L173.710371,40.2872017 C173.662461,40.2319187 173.610559,40.1805845 173.562649,40.1292502 L173.494776,40.0581721 C173.474814,40.0344793 173.450859,40.0107866 173.426904,39.9870939 C173.418616,39.9769166 173.409246,39.9676496 173.398956,39.9594524 C173.267204,39.8133472 173.131459,39.6632933 173.003699,39.5053418 L172.836014,39.3039536 C172.724224,39.1775924 172.620419,39.0433336 172.512621,38.9011773 C172.348929,38.6997891 172.201206,38.4944521 172.041506,38.2693712 C171.973634,38.1864467 171.913746,38.0995733 171.853859,38.0127 L171.690166,37.771824 Z M187.314394,28.080756 L190.577372,32.9646367 C191.778216,34.6571023 191.52475,36.9929168 189.99273,38.3766257 L189.827848,38.5171932 C188.318566,39.7352707 186.141892,39.6835855 184.678347,38.3650533 C183.141522,36.9852294 182.878379,34.6501705 184.068514,32.9535507 L187.314394,28.080756 Z M192.272506,24.867326 C193.980957,23.6822828 196.343442,23.9328872 197.74295,25.447612 L197.885123,25.610632 C199.117109,27.1028755 199.064833,29.2549762 197.731246,30.7019985 C196.335667,32.2214741 193.973946,32.481646 192.257953,31.3049474 L187.32952,28.0957105 Z M184.678347,17.7964587 C186.141892,16.4779264 188.318566,16.4262413 189.827848,17.6443188 L189.99273,17.7848862 C191.52475,19.1685951 191.778216,21.5044097 190.579641,23.1935725 L187.326212,28.0636247 L187.312212,28.0766247 L182.389873,31.2919421 C180.678083,32.4792291 178.315597,32.2286248 176.916089,30.7139 L176.773916,30.5508799 C175.541931,29.0586365 175.594206,26.9065358 176.927794,25.4595135 C178.323373,23.9400379 180.685094,23.6798659 182.401086,24.8565646 L187.285212,28.0366247 L184.068514,23.2079612 C182.878379,21.5113414 183.141522,19.1762826 184.678347,17.7964587 Z M169.055116,24.1098082 L170.284806,24.4770455 C170.724087,24.612329 171.024402,25.0131549 171.027411,25.4681912 L171.027411,30.1277607 C171.024402,30.582797 170.724087,30.9836229 170.284806,31.1189064 L169.055116,31.4861437 C168.554724,29.0522698 168.554724,26.5436821 169.055116,24.1098082 Z M205.031533,24.113757 L205.125934,24.6008666 C205.505785,26.7156961 205.505785,28.8802558 205.125934,30.9950854 L205.030597,31.4804327 L203.809828,31.1181167 C203.369662,30.9832676 203.067928,30.5827006 203.063231,30.126971 L203.063231,25.4681912 C203.066831,25.0142383 203.367254,24.6148644 203.805836,24.4809943 L205.031533,24.113757 Z M197.130376,12.6148872 C197.147238,12.6240293 197.163268,12.6345989 197.178286,12.6464775 L197.230188,12.6859654 L197.318023,12.7412484 C197.353956,12.7649411 197.389888,12.7886339 197.417836,12.8083778 C197.485708,12.8518145 197.553581,12.8991999 197.621453,12.9505342 L197.721266,13.0216123 C197.944846,13.1756151 198.160441,13.3375154 198.384021,13.511262 C198.415961,13.5349547 198.447901,13.5625963 198.479841,13.586289 L198.559691,13.6534184 C198.671481,13.7323941 198.771293,13.8192675 198.887076,13.9179871 C198.930993,13.9535262 198.978903,13.9930141 199.022821,14.032502 C199.031109,14.0426792 199.040478,14.0519463 199.050768,14.0601435 C199.174536,14.1588632 199.294311,14.2615317 199.418078,14.3760465 L199.426063,14.3839441 C199.649643,14.5853323 199.873223,14.8025156 200.112773,15.0433916 C200.184638,15.1144698 200.256503,15.185548 200.328368,15.2645238 C200.971303,15.9239614 201.560065,16.6330402 202.089061,17.3850228 C202.192866,17.5311279 202.296671,17.6772331 202.392491,17.8233382 L202.037158,18.01288 L201.270598,18.4235539 C200.985848,18.5737178 200.646934,18.5853771 200.352323,18.4551442 C200.232114,18.4066385 200.123363,18.3340357 200.032923,18.2419097 L196.707171,14.9525695 C196.382722,14.6290251 196.308344,14.1345498 196.523516,13.7316044 Z M176.960266,12.6180462 L177.567126,13.7316044 C177.780976,14.1358294 177.706785,14.6303388 177.383471,14.9557286 L174.053726,18.2419097 C173.728206,18.5621262 173.229949,18.6357264 172.824036,18.4235539 L171.694159,17.8233382 C173.075149,15.7535399 174.866718,13.9826606 176.960266,12.6180462 Z M183.320319,10.0118463 C185.778177,9.51429779 188.312465,9.51429779 190.770324,10.0118463 L190.403014,11.2201754 C190.267133,11.6586765 189.856614,11.9571761 189.392911,11.9546658 L184.693739,11.9546658 C184.233411,11.9524279 183.827746,11.6551071 183.691621,11.2201754 Z" id="Combined-Shape"></path>
                <g id="Klub" transform="translate(0, 7)">
                    <path d="M45.398773,40.075188 L31.1846334,40.075188 L16.8083552,25.2764339 L11.2416009,25.2764339 L11.2416009,40.075188 L0,40.075188 L0,1.84962406 L11.2416009,1.84962406 L11.2416009,16.5937701 L16.5921706,16.5937701 L30.2658487,1.84962406 L43.7233421,1.84962406 L25.5097867,20.1978947 L45.398773,40.075188 Z M49.3865031,0 L60.1226994,0 L60.1226994,40.075188 L49.3865031,40.075188 L49.3865031,0 Z M92.882449,11.7142857 L103.680982,11.7142857 L103.680982,40.3443497 L93.6421447,40.3443497 L93.6421447,33.6239339 C90.8565936,38.5413113 86.352683,41 80.1304129,41 C75.7531183,41 72.3977954,39.7160181 70.0644441,37.1480544 C67.7310928,34.5800906 66.5644172,31.0013326 66.5644172,26.4117804 L66.5644172,11.7142857 L77.3629498,11.7142857 L77.3629498,23.0788913 C77.3629498,29.0525942 79.7143891,32.0394456 84.4172676,32.0394456 C87.1666427,32.0394456 89.2648501,31.1015014 90.7118896,29.225613 C92.1589292,27.3497246 92.882449,24.9365672 92.882449,21.9861407 L92.882449,11.7142857 Z M133.318826,10.8801415 C138.21341,10.8801415 142.217252,12.2129589 145.330351,14.8785935 C148.44345,17.5442282 150,21.1800088 150,25.7859354 C150,30.391862 148.452448,34.0276426 145.357343,36.6932773 C142.262239,39.358912 138.285389,40.6917293 133.426795,40.6917293 C127.416533,40.6917293 123.079788,38.8239717 120.416559,35.0884564 L120.416559,40.0389208 L110.429448,40.0389208 L110.429448,0 L121.17234,0 L121.17234,15.449801 C123.79958,12.4033613 127.848409,10.8801415 133.318826,10.8801415 Z M123.169762,30.6819991 C124.861273,31.9150818 127.146612,32.5316232 130.025779,32.5316232 C132.904946,32.5316232 135.181287,31.9150818 136.854803,30.6819991 C138.528319,29.4489164 139.365077,27.8168952 139.365077,25.7859354 C139.365077,23.7549757 138.528319,22.1229544 136.854803,20.8898717 C135.181287,19.656789 132.904946,19.0402477 130.025779,19.0402477 C127.146612,19.0402477 124.87027,19.656789 123.196754,20.8898717 C121.523238,22.1229544 120.68648,23.7549757 120.68648,25.7859354 C120.68648,27.8168952 121.514241,29.4489164 123.169762,30.6819991 Z" id="Combined-Shape"></path>
                </g>
            </g>
        </g>
    </g>
</svg>